<svg width="438" height="831" viewBox="0 0 438 831" fill="none" xmlns="http://www.w3.org/2000/svg">
<path d="M27 123.595H222.756H410V382.843H222.756H27V123.595Z" fill="white" stroke="black" stroke-width="4" stroke-linejoin="round"/>
<rect x="2" y="418.002" width="434" height="410.998" fill="white" stroke="black" stroke-width="4" stroke-linejoin="round"/>
<path d="M2 2H436V88.4353H2V2Z" fill="white" stroke="black" stroke-width="4" stroke-linecap="round" stroke-linejoin="round"/>
<path d="M3.97116 414.002L27.0668 382.833H411.423L434.074 414.002H3.97116Z" stroke="black" stroke-width="4" stroke-linejoin="round"/>
<path d="M28.064 384.852H410.437L432.989 416.002H5.01141L28.064 384.852Z" fill="#CFCFCF"/>
<path d="M434.029 92.4353L410.933 123.605L26.5772 123.605L3.92572 92.4353L434.029 92.4353Z" stroke="black" stroke-width="4" stroke-linejoin="round"/>
<path d="M409.936 121.585L27.5628 121.585L5.01135 90.4353L432.989 90.4353L409.936 121.585Z" fill="#CFCFCF"/>
<rect x="147" y="586.815" width="143" height="148.735" rx="13" fill="#CECECE" stroke="black" stroke-width="4"/>
<ellipse cx="4.51318" cy="4.50862" rx="4.51318" ry="4.50862" transform="matrix(0.626842 -0.779146 0.77618 0.630511 153 600.891)" fill="black"/>
<path d="M157.384 598.638L161.273 601.797" stroke="#BCBCBC"/>
<line y1="-0.5" x2="5.01464" y2="-0.5" transform="matrix(0.626842 -0.779146 0.77618 0.630511 158.146 602.487)" stroke="#BCBCBC"/>
<ellipse cx="4.50146" cy="4.52031" rx="4.50146" ry="4.52031" transform="matrix(0.965621 0.259955 -0.257625 0.966245 274.146 594.68)" fill="black"/>
<path d="M277.975 597.791L276.682 602.644" stroke="#BCBCBC"/>
<line y1="-0.5" x2="5.00162" y2="-0.5" transform="matrix(0.965621 0.259955 -0.257625 0.966245 274.784 600.053)" stroke="#BCBCBC"/>
<ellipse cx="4.50826" cy="4.51353" rx="4.50826" ry="4.51353" transform="matrix(0.786703 -0.617331 0.613642 0.789585 153.012 722.027)" fill="black"/>
<path d="M157.79 720.828L160.867 724.788" stroke="#BCBCBC"/>
<line y1="-0.5" x2="5.00918" y2="-0.5" transform="matrix(0.786703 -0.617331 0.613642 0.789585 157.666 724.75)" stroke="#BCBCBC"/>
<ellipse cx="4.52057" cy="4.5012" rx="4.52057" ry="4.5012" transform="matrix(0.233919 -0.972256 0.971738 0.236062 271.897 726.14)" fill="black"/>
<path d="M274.899 722.217L279.759 723.398" stroke="#BCBCBC"/>
<line y1="-0.5" x2="5.02285" y2="-0.5" transform="matrix(0.233919 -0.972256 0.971738 0.236062 277.227 725.368)" stroke="#BCBCBC"/>
<path d="M265 469.259C265 475.343 260.119 481.112 251.635 485.42C243.207 489.699 231.493 492.375 218.5 492.375C205.507 492.375 193.793 489.699 185.365 485.42C176.881 481.112 172 475.343 172 469.259C172 463.174 176.881 457.405 185.365 453.098C193.793 448.819 205.507 446.143 218.5 446.143C231.493 446.143 243.207 448.819 251.635 453.098C260.119 457.405 265 463.174 265 469.259Z" fill="#F4F4F4" stroke="black" stroke-width="2"/>
<path d="M207 469.259H232" stroke="black" stroke-width="4" stroke-linecap="round"/>
<line x1="166" y1="761.676" x2="272" y2="761.676" stroke="black" stroke-width="4" stroke-linecap="round"/>
<line x1="166" y1="776.748" x2="272" y2="776.748" stroke="black" stroke-width="4" stroke-linecap="round"/>
<line x1="166" y1="791.821" x2="272" y2="791.821" stroke="black" stroke-width="4" stroke-linecap="round"/>
</svg>
