<svg width="341" height="218" viewBox="0 0 341 218" fill="none" xmlns="http://www.w3.org/2000/svg">
<path d="M33.1748 22.3403C34.1482 21.5077 35.9804 20.5759 38.8032 19.6287C41.5756 18.6985 45.119 17.8123 49.3504 16.9791C57.8096 15.3133 68.8601 13.8898 81.6637 12.7267C107.261 10.4013 139.706 9.13056 172.102 9.00954C204.499 8.88851 236.797 9.91752 262.103 12.1817C274.762 13.3143 285.623 14.7519 293.854 16.4962C297.972 17.3688 301.383 18.3082 304.012 19.3046C306.696 20.3221 308.342 21.3187 309.154 22.1866C311.08 24.246 312.95 28.2089 314.62 33.9493C316.267 39.6132 317.647 46.7402 318.751 54.8674C320.957 71.1151 322.034 91.1759 321.999 111.133C321.964 131.091 320.816 150.878 318.593 166.577C317.481 174.432 316.107 181.209 314.489 186.453C312.837 191.81 311.039 195.187 309.314 196.662C308.553 197.313 306.925 198.104 304.221 198.925C301.588 199.723 298.168 200.485 294.043 201.2C285.798 202.63 274.902 203.849 262.205 204.842C236.819 206.829 204.384 207.903 171.876 207.994C139.368 208.084 106.829 207.192 81.2356 205.251C68.4337 204.28 57.4099 203.05 49.0115 201.559C44.8101 200.813 41.3074 200.009 38.5862 199.154C35.8054 198.28 34.0574 197.417 33.1748 196.662C31.2097 194.981 29.2233 191.397 27.4062 185.916C25.6194 180.528 24.0955 173.623 22.8565 165.664C20.3798 149.753 19.0736 129.838 19.003 109.858C18.9324 89.8761 20.0979 69.904 22.5388 53.8771C23.7599 45.8596 25.2921 38.8842 27.1254 33.4095C28.9858 27.8541 31.0592 24.1499 33.1748 22.3403Z" stroke="black" stroke-width="4" stroke-linejoin="round"/>
<path fill-rule="evenodd" clip-rule="evenodd" d="M174.267 1H6.00001C3.23858 1 1 3.23858 1 6V212C1 214.761 3.23858 217 6 217H174.267H335C337.761 217 340 214.761 340 212V5.99999C340 3.23857 337.761 1 335 1H174.267ZM310.615 20.8205C292.485 1.43658 52.2703 3.37523 31.8747 20.8205C11.4792 38.2657 12.6124 181.706 31.8747 198.182C51.1371 214.658 293.052 213.204 310.615 198.182C328.177 183.159 328.744 40.2044 310.615 20.8205Z" fill="#A8A8A8" stroke="black" stroke-width="2" stroke-linejoin="round"/>
<circle cx="11.364" cy="13.364" r="4.5" transform="rotate(22.3787 11.364 13.364)" fill="black"/>
<path d="M12.3158 11.0522L10.4122 15.6757" stroke="#BCBCBC"/>
<line x1="9.05224" y1="12.4122" x2="13.6757" y2="14.3158" stroke="#BCBCBC"/>
<circle cx="330.5" cy="204.364" r="4.5" transform="rotate(-10.9616 330.5 204.364)" fill="black"/>
<path d="M330.025 201.91L330.975 206.818" stroke="#BCBCBC"/>
<line x1="328.046" y1="204.839" x2="332.954" y2="203.889" stroke="#BCBCBC"/>
<circle cx="12.3639" cy="205.228" r="4.5" transform="rotate(-51.0474 12.3639 205.228)" fill="black"/>
<path d="M10.4198 203.656L14.3081 206.8" stroke="#BCBCBC"/>
<line x1="10.7923" y1="207.172" x2="13.9356" y2="203.284" stroke="#BCBCBC"/>
<circle cx="329.5" cy="12.5" r="4.5" transform="rotate(8.55177 329.5 12.5)" fill="black"/>
<path d="M329.872 10.0278L329.128 14.9722" stroke="#BCBCBC"/>
<line x1="327.028" y1="12.1282" x2="331.972" y2="12.8718" stroke="#BCBCBC"/>
</svg>
